<svg width="1920" height="1239" viewBox="0 0 1920 1239" fill="none" xmlns="http://www.w3.org/2000/svg">
<path d="M83.4409 1174.22C83.4409 1166.38 81.6676 1160.41 78.1209 1156.3C74.3876 1152.01 68.7876 1149.86 61.3209 1149.86C54.2276 1149.86 48.8143 1152.1 45.0809 1156.58C41.1609 1160.88 39.2009 1167.22 39.2009 1175.62C39.2009 1178.61 39.2943 1181.13 39.4809 1183.18C39.4809 1185.05 39.6676 1187.01 40.0409 1189.06L83.4409 1189.06L83.4409 1174.22ZM173.321 1188.78C173.881 1190.84 174.441 1194.1 175.001 1198.58C175.561 1202.88 175.841 1207.17 175.841 1211.46C175.841 1215.76 175.468 1219.58 174.721 1222.94C174.161 1226.12 173.041 1228.82 171.361 1231.06C169.681 1233.3 167.348 1234.98 164.361 1236.1C161.374 1237.22 157.454 1237.78 152.601 1237.78L20.7209 1237.78C16.8009 1237.78 13.8143 1236.76 11.7609 1234.7C9.52093 1232.46 7.74759 1229.48 6.44093 1225.74C4.20093 1219.4 2.61426 1212.21 1.68093 1204.18C0.560929 1195.97 0.000930665 1187.76 0.000930306 1179.54C0.00092918 1153.78 5.5076 1134.09 16.5209 1120.46C27.5343 1106.84 42.4676 1100.02 61.3209 1100.02C70.4676 1100.02 78.7743 1101.52 86.2409 1104.5C93.5209 1107.3 99.8676 1111.6 105.281 1117.38C110.508 1122.98 114.614 1130.17 117.601 1138.94C120.401 1147.53 121.801 1157.52 121.801 1168.9L121.801 1188.78L173.321 1188.78ZM9.80094 1033.44C7.93426 1030.27 6.16092 1025.51 4.48092 1019.16C2.80092 1012.63 1.96092 1006.1 1.96092 999.564C1.96092 990.23 3.36092 982.017 6.16093 974.924C8.77427 967.644 12.9743 962.977 18.7609 960.924C28.4676 957.564 39.7609 953.924 52.6409 950.004C65.5209 946.084 78.8676 942.164 92.6809 938.244C106.308 934.324 119.841 930.497 133.281 926.764C146.534 923.03 158.294 919.764 168.561 916.964C171.174 919.204 173.228 922.564 174.721 927.044C176.401 931.524 177.241 936.844 177.241 943.004C177.241 947.484 176.868 951.31 176.121 954.484C175.374 957.47 174.254 959.99 172.761 962.044C171.268 963.91 169.308 965.497 166.881 966.804C164.454 967.924 161.654 968.95 158.481 969.884L139.161 974.924L139.161 1025.6C144.761 1027.1 150.548 1028.59 156.521 1030.08C162.494 1031.58 168.281 1033.07 173.881 1034.56C174.814 1037.18 175.561 1039.98 176.121 1042.96C176.868 1045.76 177.241 1049.22 177.241 1053.32C177.241 1062.84 175.654 1069.94 172.481 1074.6C169.121 1079.08 164.548 1081.32 158.761 1081.32C156.148 1081.32 153.534 1080.95 150.921 1080.2C148.308 1079.46 145.228 1078.62 141.681 1077.68C136.641 1076.38 130.388 1074.6 122.921 1072.36C115.454 1069.94 107.428 1067.32 98.8409 1064.52C90.0676 1061.72 81.1076 1058.74 71.9609 1055.56C62.8143 1052.39 54.2276 1049.4 46.2009 1046.6C37.9876 1043.8 30.7076 1041.28 24.3609 1039.04C18.0143 1036.62 13.1609 1034.75 9.80094 1033.44ZM45.9209 999.844C53.7609 1002.46 62.5343 1005.44 72.2409 1008.8C81.7609 1011.98 91.4676 1014.87 101.361 1017.48L101.361 982.764C91.2809 985.377 81.4809 988.084 71.9609 990.884C62.2543 993.497 53.5743 995.924 45.9209 998.164L45.9209 999.844ZM43.9623 897.694C41.9088 899.001 39.1086 900.214 35.5618 901.333C32.015 902.453 28.2816 903.012 24.3616 903.012C17.0816 903.011 11.8551 901.424 8.68225 898.25C5.50936 894.889 3.92326 890.596 3.92396 885.369L3.94024 763.289C5.99374 761.983 8.7939 760.77 12.3407 759.65C15.8875 758.531 19.621 757.971 23.5409 757.972C30.821 757.973 36.0474 759.653 39.2203 763.014C42.3932 766.188 43.9793 770.388 43.9786 775.614L43.9745 806.694L173.334 806.712C173.894 808.765 174.454 812.032 175.013 816.512C175.573 820.805 175.852 825.099 175.851 829.392C175.851 833.685 175.477 837.512 174.73 840.872C174.169 844.045 173.049 846.752 171.369 848.991C169.689 851.231 167.355 852.911 164.368 854.031C161.381 855.15 157.461 855.71 152.608 855.709L43.9679 855.694L43.9623 897.694ZM199.265 583.985C199.492 586.102 199.526 589.416 199.368 593.928C199.239 598.256 198.834 602.539 198.152 606.778C197.47 611.017 196.494 614.736 195.224 617.934C194.167 620.979 192.631 623.473 190.617 625.418C188.603 627.363 186.032 628.651 182.905 629.283C179.779 629.914 175.82 629.845 171.028 629.074L127.902 622.139L119.366 675.217L182.949 685.442C183.176 687.558 183.21 690.872 183.052 695.384C182.923 699.712 182.518 703.995 181.836 708.234C181.155 712.473 180.179 716.192 178.908 719.391C177.851 722.435 176.316 724.93 174.301 726.874C172.287 728.819 169.716 730.107 166.59 730.739C163.463 731.371 159.504 731.301 154.712 730.531L8.74765 707.057C8.70506 704.971 8.76297 701.672 8.92139 697.159C8.8955 692.618 9.20857 688.32 9.86061 684.265C10.5423 680.026 11.5036 676.399 12.7447 673.385C13.831 670.156 15.3814 667.57 17.3957 665.625C19.4101 663.68 21.9806 662.392 25.1072 661.76C28.2338 661.129 32.193 661.198 36.9847 661.969L81.2164 669.082L89.7521 616.004L25.0633 605.601C25.0207 603.514 25.0786 600.215 25.237 595.703C25.2111 591.161 25.5242 586.863 26.1762 582.808C26.8579 578.57 27.8192 574.943 29.0603 571.928C30.1466 568.7 31.697 566.113 33.7113 564.168C35.7257 562.224 38.2962 560.935 41.4228 560.304C44.5494 559.672 48.5086 559.742 53.3003 560.512L199.265 583.985ZM103.46 379.241C105.874 378.934 108.884 379.115 112.491 379.783C116.007 380.203 119.454 381.209 122.831 382.801C129.416 385.905 133.467 389.569 134.984 393.793C136.412 397.768 136.012 402.119 133.783 406.847L108.709 460.033L137.328 473.525L163.476 418.06C165.971 417.585 168.936 417.641 172.373 418.23C175.89 418.65 179.337 419.656 182.714 421.248C189.13 424.272 193.097 427.897 194.614 432.12C196.042 436.095 195.641 440.447 193.412 445.174L172.517 489.496L225.956 514.689C225.587 516.785 224.701 519.979 223.297 524.27C221.973 528.392 220.395 532.395 218.564 536.278C216.734 540.162 214.764 543.464 212.656 546.185C210.796 548.816 208.629 550.787 206.154 552.097C203.679 553.406 200.852 553.931 197.673 553.67C194.494 553.41 190.71 552.245 186.32 550.175L76.149 498.236C68.8887 494.813 64.143 489.996 61.9119 483.785C59.6809 477.574 60.2767 470.838 63.6995 463.578L103.46 379.241ZM298.067 389.22C297.287 391.2 295.782 394.152 293.55 398.077C291.43 401.852 289.085 405.46 286.516 408.9C283.947 412.34 281.359 415.183 278.75 417.428C276.403 419.636 273.886 421.134 271.199 421.924C268.513 422.713 265.638 422.663 262.575 421.774C259.512 420.884 256.036 418.987 252.147 416.084L133.69 327.627C134.62 325.758 136.2 322.861 138.432 318.937C140.514 314.9 142.784 311.237 145.241 307.946C147.81 304.506 150.343 301.738 152.84 299.643C155.299 297.285 157.872 295.712 160.558 294.922C163.244 294.133 166.119 294.183 169.182 295.072C172.246 295.962 175.722 297.859 179.61 300.763L298.067 389.22ZM432.572 263.472C432.25 267.153 430.579 271.115 427.558 275.355C424.8 279.619 420.776 283.971 415.485 288.41C410.194 292.85 404.53 296.263 398.491 298.65C392.453 301.037 385.412 300.487 377.37 297.001L319.778 271.494C313.914 268.861 308.503 266.334 303.548 263.913C298.472 261.349 292.773 258.333 286.452 254.865L285.345 256.16C292.396 263.401 299.282 271.026 306.001 279.033C312.864 286.921 319.535 294.726 326.014 302.447L353.912 335.693C352.699 337.442 350.628 339.91 347.7 343.099C344.914 346.168 341.948 349.022 338.802 351.662C335.656 354.302 332.688 356.427 329.897 358.038C327.106 359.649 324.384 360.471 321.732 360.504C319.079 360.537 316.423 359.841 313.766 358.416C310.988 356.848 308.099 354.277 305.099 350.702L215.106 243.458C214.708 238.918 215.983 234.194 218.93 229.284C221.876 224.374 225.709 219.94 230.428 215.98C235.719 211.54 241.443 208.198 247.602 205.955C253.784 203.448 260.764 203.926 268.544 207.389L326.35 232.717C332.214 235.35 337.684 237.948 342.76 240.512C347.716 242.933 353.354 245.877 359.676 249.345L360.568 248.23C353.517 240.989 346.68 233.567 340.057 225.966C333.435 218.364 326.884 210.703 320.404 202.981L291.246 168.234C292.459 166.485 294.459 164.076 297.245 161.008C300.173 157.819 303.211 154.905 306.357 152.265C312.648 146.985 318.398 144.109 323.607 143.637C328.696 143.023 334.18 146.218 340.059 153.225L432.572 263.472ZM486.029 202.396C488.071 201.965 490.545 201.356 493.45 200.571C496.285 199.614 498.912 198.64 501.331 197.651C507.206 195.249 512.208 192.194 516.34 188.488C520.644 184.711 523.781 180.302 525.753 175.261C527.898 170.148 528.754 164.353 528.323 157.874C527.994 151.152 526.169 143.73 522.848 135.61C516.489 120.06 508.092 109.881 497.655 105.074C487.148 100.094 475.848 100.077 463.753 105.023C461.334 106.012 458.865 107.123 456.344 108.355C453.995 109.517 451.596 110.801 449.146 112.207L486.029 202.396ZM516.016 234.299C513.079 235.5 509.674 236.792 505.803 238.174C501.931 239.555 497.816 240.835 493.457 242.012C489.271 243.119 484.928 244.088 480.428 244.92C476.172 245.854 472.033 246.337 468.012 246.368C457.026 246.626 449.696 242.262 446.021 233.278L396.526 112.247C395.042 108.619 394.862 105.466 395.985 102.788C397.21 99.867 399.304 97.0951 402.265 94.4725C408.705 89.0154 415.93 84.2454 423.941 80.1628C431.881 75.9073 439.134 72.4371 445.699 69.7521C459.176 64.2408 472.028 60.9009 484.255 59.7322C496.656 58.4929 508.156 59.739 518.758 63.4705C529.461 66.9586 539.092 73.0027 547.651 81.6029C556.21 90.2031 563.386 101.587 569.18 115.755C574.833 129.577 577.706 142.519 577.798 154.582C577.821 166.471 575.393 177.548 570.515 187.811C565.739 197.831 558.701 206.759 549.402 214.596C540.103 222.432 528.974 229 516.016 234.299ZM602.393 46.9148C601.54 38.9335 603.186 32.3749 607.331 27.2389C611.475 22.1029 617.538 19.1086 625.519 18.256L717.397 8.44054C718.914 10.3434 720.315 12.9158 721.6 16.1577C723.071 19.3797 724.004 22.8468 724.401 26.559C725.154 33.6122 724.112 38.7922 721.274 42.0991C718.621 45.3861 714.789 47.2973 709.778 47.8327L651.032 54.1086L653.798 80.0013L716.442 73.309C717.959 75.2119 719.361 77.7843 720.645 81.0261C722.096 84.0625 723.02 87.4368 723.417 91.149C724.17 98.2022 723.221 103.372 720.568 106.659C717.916 109.946 714.084 111.858 709.072 112.393L657.844 117.866L660.967 147.099L732.519 139.455C734.037 141.358 735.438 143.931 736.723 147.173C738.194 150.395 739.127 153.862 739.524 157.574C740.277 164.627 739.245 169.9 736.427 173.392C733.774 176.679 729.942 178.591 724.931 179.126L643.633 187.811C635.652 188.664 629.093 187.018 623.957 182.873C618.821 178.729 615.827 172.666 614.974 164.685L602.393 46.9148ZM823.463 119.54V173.3C821.41 173.86 818.143 174.42 813.663 174.98C809.37 175.54 805.076 175.82 800.783 175.82C796.49 175.82 792.663 175.447 789.303 174.7C786.13 174.14 783.423 173.02 781.183 171.34C779.13 169.66 777.543 167.327 776.423 164.34C775.303 161.354 774.743 157.434 774.743 152.58V20.7004C774.743 16.7804 775.77 13.7938 777.823 11.7404C780.063 9.50043 783.05 7.72709 786.783 6.42043C793.13 4.18043 800.503 2.59376 808.903 1.66043C817.303 0.540432 826.263 -0.0195665 835.783 -0.0195665C861.543 -0.0195665 880.956 5.39377 894.023 16.2204C907.09 27.0471 913.623 41.7004 913.623 60.1804C913.623 71.7538 910.636 81.6471 904.663 89.8604C898.69 98.0738 891.596 104.42 883.383 108.9C890.103 118.047 896.73 126.634 903.263 134.66C909.796 142.687 914.93 149.967 918.663 156.5C916.796 163.034 913.343 168.074 908.303 171.62C903.45 174.98 897.943 176.66 891.783 176.66C887.676 176.66 884.13 176.194 881.143 175.26C878.156 174.327 875.543 173.02 873.303 171.34C871.063 169.66 869.01 167.607 867.143 165.18C865.276 162.754 863.503 160.14 861.823 157.34L838.303 119.54H823.463ZM841.103 82.3004C848.196 82.3004 853.796 80.5271 857.903 76.9804C862.01 73.2471 864.063 67.8338 864.063 60.7404C864.063 53.6471 861.73 48.3271 857.063 44.7804C852.583 41.0471 845.396 39.1804 835.503 39.1804C832.703 39.1804 830.463 39.2738 828.783 39.4604C827.103 39.6471 825.236 39.9271 823.183 40.3004V82.3004H841.103ZM1180.76 174.161C1178.7 174.711 1175.43 175.254 1170.95 175.792C1166.65 176.33 1162.36 176.588 1158.06 176.566C1153.77 176.545 1149.94 176.152 1146.59 175.388C1143.42 174.812 1140.72 173.678 1138.49 171.987C1136.25 170.296 1134.59 167.954 1133.48 164.962C1132.38 161.969 1131.84 158.046 1131.86 153.193L1132.08 109.514L1078.32 109.241L1078 173.64C1075.94 174.19 1072.67 174.733 1068.19 175.27C1063.89 175.809 1059.6 176.067 1055.3 176.045C1051.01 176.023 1047.19 175.631 1043.83 174.867C1040.66 174.291 1037.96 173.157 1035.73 171.466C1033.5 169.774 1031.83 167.433 1030.72 164.44C1029.62 161.448 1029.08 157.525 1029.1 152.672L1029.85 4.83384C1031.91 4.47092 1035.18 4.02083 1039.66 3.48356C1044.14 2.75963 1048.44 2.40807 1052.54 2.4289C1056.84 2.45068 1060.57 2.84295 1063.74 3.6057C1067.1 4.18273 1069.89 5.31691 1072.12 7.00825C1074.35 8.69959 1076.02 11.0414 1077.13 14.0337C1078.23 17.026 1078.77 20.9488 1078.75 25.8021L1078.52 70.6015L1132.28 70.8742L1132.61 5.35505C1134.67 4.99213 1137.93 4.54204 1142.42 4.00478C1146.9 3.28084 1151.2 2.92929 1155.3 2.95012C1159.6 2.9719 1163.33 3.36416 1166.5 4.12692C1169.85 4.70394 1172.65 5.83813 1174.88 7.52947C1177.11 9.22081 1178.78 11.5626 1179.88 14.555C1180.99 17.5473 1181.53 21.47 1181.51 26.3233L1180.76 174.161ZM1282.28 23.0717C1285.76 21.867 1290.78 21.0664 1297.33 20.67C1304.07 20.3104 1310.64 20.7743 1317.04 22.0617C1326.19 23.9009 1333.97 26.892 1340.37 31.0349C1346.99 35.0316 1350.74 40.0688 1351.61 46.1466C1353 56.3251 1354.34 68.1143 1355.64 81.5142C1356.95 94.9141 1358.16 108.772 1359.28 123.086C1360.44 137.218 1361.53 151.24 1362.54 165.153C1363.59 178.882 1364.47 191.055 1365.19 201.672C1362.48 203.793 1358.78 205.144 1354.1 205.725C1349.37 206.489 1343.99 206.264 1337.95 205.05C1333.56 204.168 1329.88 203.048 1326.92 201.69C1324.14 200.37 1321.89 198.775 1320.17 196.906C1318.63 195.074 1317.46 192.84 1316.66 190.204C1316.04 187.604 1315.59 184.656 1315.3 181.361L1314.16 161.427L1264.48 151.44C1261.91 156.636 1259.3 162.015 1256.66 167.577C1254.02 173.139 1251.42 178.518 1248.85 183.714C1246.1 184.114 1243.21 184.294 1240.17 184.254C1237.28 184.435 1233.82 184.12 1229.8 183.311C1220.46 181.435 1213.82 178.482 1209.87 174.451C1206.14 170.274 1204.85 165.349 1205.99 159.676C1206.5 157.114 1207.38 154.625 1208.63 152.21C1209.88 149.795 1211.31 146.941 1212.92 143.648C1215.2 138.964 1218.17 133.183 1221.83 126.304C1225.68 119.462 1229.83 112.108 1234.26 104.241C1238.74 96.1917 1243.43 87.9959 1248.35 79.6539C1253.26 71.312 1257.88 63.4822 1262.21 56.1647C1266.57 48.6642 1270.48 42.0235 1273.92 36.2427C1277.55 30.4987 1280.34 26.1083 1282.28 23.0717ZM1308.1 65.1046C1304 72.2759 1299.34 80.2887 1294.13 89.1429C1289.15 97.8509 1284.4 106.797 1279.89 115.981L1313.93 122.823C1313.35 112.426 1312.63 102.285 1311.76 92.3996C1311.11 82.3683 1310.44 73.3803 1309.75 65.4357L1308.1 65.1046ZM1512.08 130.229C1499.31 123.641 1487.51 122.492 1476.69 126.782C1465.86 131.072 1456.77 140.351 1449.42 154.619C1441.97 169.053 1439.97 182.093 1443.42 193.741C1447.03 205.474 1455.22 214.634 1468 221.222C1474.8 224.73 1480.99 226.769 1486.58 227.34C1492.33 227.996 1497.96 228.275 1503.47 228.176C1505.1 231.954 1505.8 235.886 1505.58 239.974C1505.62 243.982 1504.52 248.143 1502.3 252.456C1498.79 259.258 1491.98 263.097 1481.86 263.973C1472 264.768 1459.36 261.188 1443.93 253.231C1432.81 247.499 1423.17 240.533 1415.01 232.333C1406.85 224.133 1400.78 214.916 1396.82 204.681C1392.94 194.28 1391.41 182.99 1392.23 170.812C1393.31 158.553 1397.43 145.455 1404.62 131.519C1411.29 118.578 1419.15 108.24 1428.18 100.505C1437.46 92.6897 1447.34 87.1775 1457.81 83.9687C1468.45 80.8455 1479.4 79.9802 1490.65 81.3728C1501.91 82.7654 1512.93 86.2423 1523.71 91.8034C1538.97 99.6745 1549.47 108.237 1555.2 117.492C1561.09 126.833 1562.03 135.402 1558.01 143.2C1555.78 147.513 1552.78 150.69 1549 152.73C1545.21 154.77 1541.44 155.975 1537.68 156.346C1534.82 151.301 1531.42 146.5 1527.47 141.942C1523.68 137.47 1518.55 133.566 1512.08 130.229ZM1584.14 268.862L1541.78 313.97C1539.9 312.973 1537.14 311.145 1533.49 308.486C1529.84 305.827 1526.45 303.028 1523.32 300.089C1520.19 297.15 1517.66 294.259 1515.72 291.414C1513.79 288.834 1512.58 286.164 1512.1 283.406C1511.62 280.648 1511.99 277.797 1513.22 274.854C1514.45 271.91 1516.72 268.669 1520.04 265.131L1621.25 157.362C1623 158.495 1625.7 160.391 1629.35 163.05C1633.13 165.572 1636.51 168.239 1639.51 171.05C1642.64 173.989 1645.1 176.817 1646.9 179.534C1648.97 182.242 1650.24 184.975 1650.73 187.734C1651.21 190.492 1650.84 193.343 1649.61 196.286C1648.38 199.23 1646.11 202.471 1642.78 206.009L1612.31 238.462L1700.57 229.549C1709.82 238.238 1714.76 246.205 1715.39 253.448C1716.27 260.684 1714.48 266.683 1710.01 271.445C1706.69 274.983 1702.67 277.486 1697.96 278.955C1693.26 280.423 1687.08 281.278 1679.42 281.518L1629.95 283.072C1629.77 290.077 1629.61 297.345 1629.45 304.877C1629.42 312.538 1629.33 320.002 1629.16 327.27C1629.26 334.531 1629.28 341.463 1629.22 348.068C1629.3 354.8 1629.35 360.609 1629.37 365.495C1626.56 368.488 1623.52 370.63 1620.26 371.921C1617 373.212 1613.65 373.78 1610.21 373.624C1606.91 373.595 1603.72 372.903 1600.64 371.547C1597.56 370.191 1594.73 368.3 1592.14 365.872C1586.56 360.633 1583.28 354.991 1582.3 348.947C1581.45 342.767 1581.17 336.239 1581.49 329.362L1584.14 268.862ZM1783.91 342.073C1787.14 343.852 1791.09 347.043 1795.77 351.647C1800.55 356.411 1804.6 361.603 1807.93 367.224C1812.69 375.254 1815.67 383.033 1816.88 390.563C1818.34 398.158 1817.11 404.314 1813.17 409.031C1806.54 416.869 1798.68 425.758 1789.59 435.696C1780.51 445.635 1771.03 455.811 1761.14 466.225C1751.42 476.544 1741.72 486.735 1732.06 496.798C1722.57 506.766 1714.11 515.571 1706.71 523.214C1703.32 522.619 1699.84 520.775 1696.27 517.682C1692.54 514.684 1689.11 510.536 1685.97 505.236C1683.68 501.382 1682.05 497.9 1681.08 494.789C1680.2 491.839 1679.88 489.1 1680.12 486.572C1680.45 484.205 1681.33 481.841 1682.75 479.48C1684.26 477.279 1686.15 474.968 1688.4 472.548L1702.46 458.363L1676.62 414.762C1671.04 416.332 1665.3 417.998 1659.4 419.758C1653.5 421.518 1647.76 423.183 1642.18 424.753C1640.05 422.981 1637.98 420.953 1635.97 418.669C1633.9 416.64 1631.82 413.86 1629.73 410.327C1624.88 402.137 1622.62 395.225 1622.98 389.593C1623.58 384.026 1626.38 379.767 1631.35 376.818C1633.6 375.485 1636.04 374.474 1638.67 373.784C1641.3 373.095 1644.38 372.247 1647.9 371.242C1652.91 369.797 1659.19 368.135 1666.75 366.256C1674.42 364.537 1682.65 362.694 1691.47 360.725C1700.44 358.662 1709.67 356.664 1719.16 354.731C1728.65 352.798 1737.56 350.99 1745.89 349.307C1754.38 347.529 1761.93 345.986 1768.53 344.678C1775.23 343.53 1780.36 342.662 1783.91 342.073ZM1769.97 389.393C1761.89 391.141 1752.82 393.044 1742.76 395.102C1732.95 397.225 1723.12 399.684 1713.28 402.479L1730.98 432.349C1738.32 424.962 1745.37 417.638 1752.13 410.376C1759.15 403.179 1765.38 396.667 1770.82 390.838L1769.97 389.393ZM1825.63 488.096C1827.27 486.296 1829.65 484.389 1832.78 482.376C1835.91 480.364 1839.36 478.842 1843.14 477.812C1850.17 475.898 1855.63 476.055 1859.52 478.283C1863.47 480.691 1866.13 484.416 1867.5 489.459L1899.59 607.247C1897.95 609.047 1895.57 610.954 1892.44 612.967C1889.31 614.98 1885.86 616.501 1882.08 617.531C1875.05 619.445 1869.57 619.198 1865.62 616.79C1861.73 614.562 1859.09 610.927 1857.72 605.884L1849.55 575.897L1724.74 609.897C1723.66 608.063 1722.26 605.059 1720.54 600.883C1718.87 596.888 1717.47 592.82 1716.34 588.677C1715.22 584.535 1714.57 580.744 1714.41 577.306C1714.11 574.097 1714.48 571.192 1715.52 568.589C1716.55 565.986 1718.36 563.752 1720.94 561.886C1723.53 560.02 1727.17 558.45 1731.85 557.174L1836.67 528.62L1825.63 488.096ZM1744.69 825.594C1744.07 823.558 1743.41 820.31 1742.72 815.849C1742.03 811.574 1741.62 807.291 1741.49 802.999C1741.37 798.708 1741.62 794.872 1742.27 791.491C1742.74 788.302 1743.78 785.564 1745.39 783.275C1747 780.986 1749.28 779.237 1752.23 778.029C1755.19 776.82 1759.09 776.144 1763.94 776L1807.6 774.7L1806 720.964L1741.63 722.88C1741.01 720.844 1740.35 717.595 1739.66 713.134C1738.97 708.859 1738.56 704.576 1738.44 700.285C1738.31 695.993 1738.57 692.157 1739.21 688.777C1739.68 685.588 1740.72 682.849 1742.33 680.56C1743.94 678.271 1746.23 676.522 1749.18 675.314C1752.13 674.106 1756.03 673.429 1760.88 673.285L1908.66 668.887C1909.09 670.928 1909.65 674.179 1910.35 678.641C1911.23 683.097 1911.73 687.377 1911.85 691.482C1911.98 695.773 1911.72 699.516 1911.06 702.71C1910.6 706.085 1909.57 708.917 1907.96 711.206C1906.34 713.495 1904.06 715.244 1901.11 716.452C1898.16 717.661 1894.26 718.337 1889.4 718.481L1844.62 719.814L1846.22 773.55L1911.71 771.601C1912.15 773.643 1912.71 776.894 1913.41 781.355C1914.28 785.811 1914.79 790.091 1914.91 794.196C1915.04 798.488 1914.77 802.23 1914.12 805.425C1913.66 808.8 1912.63 811.632 1911.01 813.921C1909.4 816.21 1907.12 817.959 1904.17 819.167C1901.21 820.375 1897.31 821.052 1892.46 821.196L1744.69 825.594ZM1829.6 864.868C1844.16 864.868 1857.04 867.108 1868.24 871.588C1879.44 876.255 1888.77 882.508 1896.24 890.348C1903.89 898.375 1909.68 907.708 1913.6 918.348C1917.52 929.175 1919.48 940.842 1919.48 953.348C1919.48 965.855 1917.52 977.428 1913.6 988.068C1909.68 998.895 1903.89 1008.32 1896.24 1016.35C1888.77 1024.38 1879.44 1030.63 1868.24 1035.11C1857.04 1039.78 1844.16 1042.11 1829.6 1042.11C1815.04 1042.11 1802.07 1039.87 1790.68 1035.39C1779.48 1030.91 1770.05 1024.66 1762.4 1016.63C1754.93 1008.79 1749.24 999.455 1745.32 988.628C1741.4 977.802 1739.44 966.042 1739.44 953.348C1739.44 940.655 1741.4 928.895 1745.32 918.068C1749.43 907.242 1755.31 897.908 1762.96 890.068C1770.61 882.228 1780.04 876.068 1791.24 871.588C1802.44 867.108 1815.23 864.868 1829.6 864.868ZM1829.6 915.268C1812.61 915.268 1799.92 918.722 1791.52 925.628C1783.12 932.535 1778.92 941.775 1778.92 953.348C1778.92 965.108 1783.12 974.442 1791.52 981.348C1799.92 988.255 1812.61 991.708 1829.6 991.708C1846.4 991.708 1859 988.255 1867.4 981.348C1875.8 974.628 1880 965.388 1880 953.628C1880 942.055 1875.8 932.722 1867.4 925.628C1859.19 918.722 1846.59 915.268 1829.6 915.268ZM1750.36 1237.86C1747.75 1235.25 1745.79 1231.42 1744.48 1226.38C1742.99 1221.53 1742.24 1215.65 1742.24 1208.74C1742.24 1201.84 1743.27 1195.3 1745.32 1189.14C1747.37 1182.98 1752.32 1177.94 1760.16 1174.02L1816.72 1146.3C1822.51 1143.5 1827.92 1140.98 1832.96 1138.74C1838.19 1136.5 1844.16 1134.08 1850.88 1131.46L1850.6 1129.78C1840.52 1130.53 1830.25 1130.9 1819.8 1130.9C1809.35 1131.09 1799.08 1131.18 1789 1131.18L1745.6 1131.18C1745.04 1129.13 1744.48 1125.96 1743.92 1121.66C1743.36 1117.56 1743.08 1113.45 1743.08 1109.34C1743.08 1105.24 1743.36 1101.6 1743.92 1098.42C1744.48 1095.25 1745.6 1092.64 1747.28 1090.58C1748.96 1088.53 1751.2 1086.94 1754 1085.82C1756.99 1084.7 1760.81 1084.14 1765.48 1084.14L1905.48 1084.14C1909.21 1086.76 1912.01 1090.77 1913.88 1096.18C1915.75 1101.6 1916.68 1107.38 1916.68 1113.54C1916.68 1120.45 1915.56 1126.98 1913.32 1133.14C1911.27 1139.49 1906.41 1144.53 1898.76 1148.26L1842.2 1176.26C1836.41 1179.06 1830.91 1181.58 1825.68 1183.82C1820.64 1186.06 1814.76 1188.49 1808.04 1191.1L1808.32 1192.5C1818.4 1191.76 1828.48 1191.29 1838.56 1191.1C1848.64 1190.92 1858.72 1190.82 1868.8 1190.82L1914.16 1190.82C1914.72 1192.88 1915.28 1195.96 1915.84 1200.06C1916.4 1204.36 1916.68 1208.56 1916.68 1212.66C1916.68 1220.88 1915.19 1227.13 1912.2 1231.42C1909.4 1235.72 1903.43 1237.86 1894.28 1237.86L1750.36 1237.86Z" fill="#EB5620"/>
</svg>
